<svg width="34" height="35" viewBox="0 0 34 35" fill="none" xmlns="http://www.w3.org/2000/svg">
<path fill-rule="evenodd" clip-rule="evenodd" d="M16.7611 34.1727C26.0181 34.1727 33.5223 26.6685 33.5223 17.4115C33.5223 8.15461 26.0181 0.650391 16.7611 0.650391C7.50422 0.650391 0 8.15461 0 17.4115C0 26.6685 7.50422 34.1727 16.7611 34.1727ZM13.0057 11.1003C13.2505 11.0245 13.8621 10.9313 14.3446 10.8963C14.481 10.8864 15.1393 10.8855 15.8075 10.8943C17.4577 10.9159 18.073 11.0392 18.3254 11.3987C18.5817 11.7638 18.588 11.8454 18.5733 14.61L18.5597 17.1808L18.6939 17.4535C18.8392 17.7488 19.0308 17.8987 19.2633 17.8987C19.4298 17.8987 19.9289 17.5074 20.2501 17.1249C21.0571 16.1641 22.2818 14.0314 22.8766 12.5511C23.0999 11.9953 23.2781 11.7062 23.4461 11.6269C23.5325 11.5862 24.3023 11.5644 26.0726 11.5527L28.5769 11.536L28.7857 11.6474C29.079 11.804 29.1437 12.0259 29.03 12.4859C28.8362 13.2702 28.1391 14.3826 26.398 16.6856C25.1637 18.3182 24.981 18.6181 24.9827 19.0084C24.9847 19.4732 25.0829 19.6026 26.4888 20.9923C27.8127 22.3009 28.2015 22.7368 28.6542 23.4193C28.9986 23.9386 29.0703 24.1601 29.053 24.6517C29.0467 24.8313 28.7701 25.1021 28.5134 25.1802C28.2541 25.2589 24.2377 25.3355 23.9402 25.2674C23.8175 25.2393 23.5162 25.1202 23.2708 25.0029C22.7261 24.7425 22.3617 24.4178 21.3759 23.3144C20.3244 22.1375 20.0426 21.9287 19.5393 21.9535C19.3951 21.9606 19.0589 22.265 18.9042 22.5285C18.7288 22.8272 18.6013 23.3864 18.5596 24.0386C18.5174 24.6994 18.4475 24.9119 18.2213 25.066C17.9468 25.253 17.5744 25.2903 16.2786 25.2607C14.9765 25.231 14.5969 25.175 13.7247 24.884C13.09 24.6722 12.5765 24.4183 11.8651 23.9644C10.3416 22.9924 9.68177 22.339 8.19055 20.325C7.17664 18.9556 6.22819 17.3862 5.10835 15.2249C4.53316 14.1148 3.75261 12.3824 3.72003 12.1436C3.68958 11.9207 3.78787 11.7493 4.01797 11.6237C4.16312 11.5445 4.37824 11.5346 6.23667 11.5213L8.29464 11.5065L8.56734 11.6451C8.89042 11.8092 8.98037 11.9339 9.26452 12.611C9.49963 13.1713 10.5533 15.2708 10.9277 15.9249C11.9797 17.7632 12.9343 18.4262 13.35 17.6072C13.5049 17.3019 13.5491 17.1067 13.6536 16.2647C13.8117 14.9909 13.6795 13.1915 13.3856 12.6162C13.2136 12.2797 12.83 12.022 12.3751 11.9377C12.2738 11.9189 12.1763 11.88 12.1585 11.8512C12.0617 11.6947 12.5854 11.2305 13.0057 11.1003Z" fill="white"/>
</svg>
