<svg width="34" height="35" viewBox="0 0 34 35" fill="none" xmlns="http://www.w3.org/2000/svg">
<path fill-rule="evenodd" clip-rule="evenodd" d="M17.2389 0.650391C7.98194 0.650391 0.477722 8.15461 0.477722 17.4115C0.477722 26.6685 7.98194 34.1727 17.2389 34.1727C26.4958 34.1727 34 26.6685 34 17.4115C34 8.15461 26.4958 0.650391 17.2389 0.650391ZM12.9862 14.9139C16.3832 13.5127 20.2165 11.9269 21.5048 11.3898C23.4019 10.599 23.9451 10.4121 24.363 10.4064C24.8063 10.4004 24.9082 10.4364 25.0857 10.6617C25.1993 10.806 25.2922 11.0636 25.2921 11.2342C25.2917 11.8931 23.2546 24.9272 23.0851 25.3561C23.0261 25.5053 22.8594 25.7457 22.7147 25.8904C22.4722 26.1328 22.4062 26.1485 21.8693 26.0926C21.0456 26.0067 20.6976 25.8276 18.4592 24.3374C16.1333 22.789 14.6747 21.7173 14.5889 21.494C14.5553 21.4065 14.5278 21.1931 14.5277 21.0195C14.5276 20.7441 14.6888 20.5529 15.7985 19.512C18.2161 17.2442 20.3974 15.0469 20.5167 14.7592C20.6682 14.3939 20.5389 14.2458 20.1526 14.3426C19.9962 14.3819 18.1056 15.5964 15.9513 17.0417C13.7971 18.487 11.8793 19.7343 11.6897 19.8134C11.0111 20.0967 10.3079 20.0022 8.32926 19.3621C6.33305 18.7163 6.05138 18.5482 6.21205 18.0978C6.26308 17.9544 6.41856 17.7527 6.55741 17.6494C6.69635 17.5462 9.5893 16.3152 12.9862 14.9139Z" fill="white"/>
</svg>
