<svg width="18" height="18" viewBox="0 0 18 18" fill="none" xmlns="http://www.w3.org/2000/svg">
<path fill-rule="evenodd" clip-rule="evenodd" d="M8.74726 0C3.94487 0 0.0517578 3.89311 0.0517578 8.69551C0.0517578 13.4979 3.94487 17.391 8.74726 17.391C13.5497 17.391 17.4428 13.4979 17.4428 8.69551C17.4428 3.89311 13.5497 0 8.74726 0ZM6.54102 7.39987C8.30334 6.67291 10.292 5.8502 10.9604 5.57159C11.9446 5.16131 12.2264 5.06436 12.4432 5.06142C12.6732 5.05827 12.7261 5.07697 12.8181 5.19385C12.877 5.2687 12.9252 5.40237 12.9252 5.49085C12.925 5.83269 11.8682 12.5946 11.7802 12.8172C11.7496 12.8946 11.6631 13.0193 11.5881 13.0943C11.4623 13.2201 11.428 13.2282 11.1495 13.1992C10.7222 13.1547 10.5416 13.0618 9.38037 12.2886C8.17371 11.4854 7.41701 10.9294 7.37249 10.8135C7.35506 10.7682 7.34079 10.6574 7.34074 10.5674C7.34069 10.4245 7.4243 10.3253 8.00002 9.78527C9.25426 8.60879 10.3859 7.46882 10.4478 7.3196C10.5264 7.13009 10.4593 7.05323 10.2589 7.10349C10.1777 7.12384 9.19691 7.75394 8.07929 8.50373C6.96172 9.25351 5.9668 9.90061 5.8684 9.94167C5.51637 10.0886 5.15157 10.0396 4.12505 9.70753C3.08944 9.37252 2.94331 9.28528 3.02667 9.0516C3.05314 8.97722 3.1338 8.87257 3.20583 8.81901C3.27792 8.76545 4.77875 8.12682 6.54102 7.39987Z" fill="white"/>
</svg>
