<svg width="18" height="18" viewBox="0 0 18 18" fill="none" xmlns="http://www.w3.org/2000/svg">
<path fill-rule="evenodd" clip-rule="evenodd" d="M8.69551 17.391C13.4979 17.391 17.391 13.4979 17.391 8.69551C17.391 3.89311 13.4979 0 8.69551 0C3.89311 0 0 3.89311 0 8.69551C0 13.4979 3.89311 17.391 8.69551 17.391ZM6.74723 5.42147C6.87421 5.38215 7.19153 5.3338 7.44185 5.31564C7.51259 5.3105 7.85412 5.31001 8.20078 5.31459C9.05689 5.32581 9.37611 5.38977 9.50706 5.57629C9.63999 5.76567 9.64325 5.80802 9.63566 7.24226L9.62861 8.57595L9.6982 8.71744C9.77358 8.87066 9.87302 8.94842 9.9936 8.94842C10.08 8.94842 10.3389 8.74538 10.5056 8.547C10.9242 8.04852 11.5596 6.94212 11.8682 6.17413C11.984 5.88578 12.0765 5.73582 12.1636 5.69469C12.2084 5.67355 12.6078 5.66225 13.5262 5.65616L14.8254 5.64753L14.9337 5.70532C15.0859 5.78655 15.1195 5.90168 15.0605 6.1403C14.9599 6.54717 14.5983 7.12427 13.695 8.31907C13.0547 9.16605 12.9599 9.32162 12.9608 9.52409C12.9618 9.76527 13.0128 9.83237 13.7421 10.5533C14.4289 11.2322 14.6307 11.4584 14.8655 11.8124C15.0442 12.0818 15.0814 12.1968 15.0724 12.4518C15.0691 12.545 14.9257 12.6855 14.7925 12.726C14.6579 12.7668 12.5743 12.8066 12.42 12.7712C12.3563 12.7566 12.2 12.6949 12.0726 12.634C11.7901 12.4989 11.6011 12.3304 11.0896 11.758C10.5441 11.1475 10.3979 11.0391 10.1368 11.052C10.062 11.0557 9.88755 11.2136 9.80731 11.3503C9.71634 11.5053 9.65017 11.7954 9.62856 12.1337C9.60667 12.4766 9.57037 12.5868 9.45305 12.6667C9.31061 12.7637 9.11745 12.7831 8.44519 12.7677C7.76968 12.7523 7.57272 12.7233 7.12026 12.5723C6.79096 12.4624 6.52459 12.3307 6.15551 12.0952C5.36511 11.591 5.02282 11.252 4.24919 10.2071C3.72318 9.49673 3.23114 8.68253 2.65018 7.56128C2.35177 6.98535 1.94683 6.08664 1.92993 5.96274C1.91414 5.8471 1.96513 5.75816 2.0845 5.69302C2.1598 5.65195 2.2714 5.64678 3.23554 5.63987L4.30319 5.63222L4.44466 5.70409C4.61227 5.78925 4.65894 5.85393 4.80635 6.20521C4.92832 6.49587 5.47494 7.58509 5.66918 7.92445C6.21497 8.87811 6.71021 9.22208 6.92585 8.7972C7.00622 8.63881 7.02914 8.53754 7.08335 8.10072C7.16539 7.43987 7.0968 6.50638 6.94432 6.20791C6.8551 6.03331 6.65608 5.89965 6.42011 5.85591C6.36755 5.84617 6.31697 5.82598 6.30774 5.81106C6.25749 5.72986 6.52919 5.48901 6.74723 5.42147Z" fill="white"/>
</svg>
