<svg width="34" height="32" viewBox="0 0 34 32" fill="none" xmlns="http://www.w3.org/2000/svg">
<path fill-rule="evenodd" clip-rule="evenodd" d="M16.1 0.00505485C13.6178 0.155978 11.4488 0.704168 9.33145 1.71565C4.38107 4.08056 0.938367 8.6088 0.15689 13.7832C0.029555 14.6263 -0.000226698 15.0637 1.29543e-06 16.0891C0.00020079 17.1177 0.0317779 17.5824 0.156633 18.395C0.464054 20.3961 1.18745 22.3785 2.24799 24.1261C3.52938 26.2377 5.37707 28.1071 7.53309 29.4733C9.5689 30.7633 11.7063 31.5652 14.2262 31.9846L14.3188 32V26.3775V20.7549H12.167H10.0151L10.0224 18.4153L10.0297 16.0756H12.1722H14.3147L14.327 13.945C14.3402 11.6458 14.3468 11.5301 14.5055 10.8059C14.8985 9.01257 15.9343 7.66922 17.4967 6.92645C18.0475 6.66459 18.8746 6.42952 19.5769 6.33529C20.0858 6.26698 21.7504 6.26679 22.5266 6.33491C23.1278 6.38769 24.1151 6.501 24.4004 6.54992L24.5928 6.5829L24.6001 8.57161L24.6074 10.5603L23.4886 10.5605C22.8733 10.5606 22.2224 10.573 22.0421 10.588C20.9069 10.6826 20.1529 11.1885 19.8419 12.0644C19.688 12.4977 19.677 12.6559 19.6768 14.4372L19.6767 16.0621H22.0145C24.131 16.0621 24.354 16.0662 24.3698 16.1053C24.3834 16.1388 23.7109 20.4312 23.6508 20.6942L23.637 20.7549H21.6568H19.6767V26.3775V32L19.755 31.9868C19.7982 31.9796 20.0065 31.9427 20.2182 31.9049C25.7814 30.9114 30.5215 27.2628 32.7099 22.2895C33.3683 20.7931 33.755 19.3298 33.9456 17.6129C34.018 16.9604 34.0182 15.2201 33.9458 14.5653C33.6406 11.8024 32.7211 9.36574 31.1409 7.13236C28.4602 3.34379 24.2075 0.807868 19.4344 0.151798C18.6839 0.0486112 18.1172 0.0111231 17.183 0.00278939C16.6814 -0.00168762 16.1941 -0.000662764 16.1 0.00505485Z" fill="white"/>
</svg>
