<svg width="18" height="18" viewBox="0 0 18 18" fill="none" xmlns="http://www.w3.org/2000/svg">
<path fill-rule="evenodd" clip-rule="evenodd" d="M8.52354 0.00268539C7.20945 0.0828635 6.06111 0.374089 4.94018 0.911438C2.31939 2.1678 0.496783 4.57342 0.0830592 7.32232C0.0156468 7.77022 -0.000120017 8.00262 6.85817e-07 8.54734C0.000106301 9.09376 0.0168236 9.34064 0.0829234 9.77237C0.245676 10.8354 0.62865 11.8886 1.19011 12.817C1.86849 13.9388 2.84668 14.9319 3.98811 15.6577C5.06589 16.343 6.19748 16.769 7.53151 16.9918L7.58055 17V14.013V11.026H6.44133H5.30212L5.30597 9.78311L5.30983 8.54018H6.44409H7.57835L7.58486 7.40829C7.59189 6.18682 7.59538 6.12535 7.67939 5.74065C7.88745 4.78793 8.43579 4.07427 9.26296 3.67967C9.55455 3.54057 9.99246 3.41569 10.3643 3.36562C10.6337 3.32933 11.5149 3.32923 11.9258 3.36542C12.2441 3.39346 12.7668 3.45365 12.9179 3.47964L13.0197 3.49717L13.0236 4.55367L13.0274 5.61015L12.4351 5.61028C12.1094 5.61034 11.7648 5.61691 11.6693 5.6249C11.0684 5.67511 10.6692 5.9439 10.5045 6.40923C10.4231 6.63943 10.4172 6.72343 10.4172 7.66977L10.4171 8.53301H11.6547C12.7752 8.53301 12.8933 8.53518 12.9017 8.55594C12.9089 8.57373 12.5528 10.8541 12.521 10.9938L12.5137 11.026H11.4654H10.4171V14.013V17L10.4586 16.993C10.4814 16.9892 10.5917 16.9696 10.7037 16.9495C13.649 16.4217 16.1584 14.4834 17.317 11.8413C17.6656 11.0463 17.8703 10.269 17.9712 9.35686C18.0095 9.01019 18.0096 8.08569 17.9713 7.73782C17.8097 6.27002 17.3229 4.97555 16.4863 3.78907C15.0672 1.77639 12.8157 0.42918 10.2888 0.0806427C9.89148 0.0258247 9.59147 0.00590914 9.09688 0.00148186C8.83133 -0.000896546 8.57333 -0.000352093 8.52354 0.00268539Z" fill="white"/>
</svg>
