<svg width="135" height="65" viewBox="0 0 135 65" fill="none" xmlns="http://www.w3.org/2000/svg">
<rect width="134.077" height="64.9475" fill="white"/>
<path d="M18.3002 49.25H14.9905C14.9083 49.2508 14.8269 49.2353 14.7508 49.2044C14.6748 49.1735 14.6057 49.1279 14.5475 49.0702C14.4893 49.0125 14.4433 48.9439 14.412 48.8683C14.3808 48.7927 14.365 48.7117 14.3655 48.6299V15.7798C14.3655 15.6164 14.4307 15.4597 14.5468 15.3441C14.6629 15.2286 14.8204 15.1636 14.9846 15.1636H18.2944C18.4586 15.1636 18.616 15.2286 18.7322 15.3441C18.8483 15.4597 18.9135 15.6164 18.9135 15.7798V48.6299C18.9145 48.793 18.8506 48.9499 18.7356 49.0661C18.6206 49.1823 18.4641 49.2485 18.3002 49.25ZM51.6237 15.1636H24.3103C24.2027 15.1594 24.0978 15.1979 24.0186 15.2705C23.9394 15.3432 23.8924 15.4441 23.8879 15.5512V18.7484C23.8929 18.8553 23.9401 18.9559 24.0192 19.0285C24.0983 19.101 24.2029 19.1396 24.3103 19.1359H35.1333C35.2405 19.1323 35.3449 19.1709 35.4237 19.2435C35.5025 19.3161 35.5492 19.4167 35.5538 19.5235V48.8624C35.5584 48.9692 35.6051 49.0698 35.6839 49.1424C35.7626 49.215 35.867 49.2537 35.9743 49.25H39.9441C40.0514 49.2537 40.1558 49.215 40.2345 49.1424C40.3133 49.0698 40.3601 48.9692 40.3646 48.8624V19.5293C40.3692 19.4226 40.4159 19.3219 40.4947 19.2493C40.5735 19.1768 40.6779 19.1381 40.7852 19.1418H51.6237C51.7309 19.1454 51.8353 19.1068 51.9141 19.0342C51.9929 18.9616 52.0396 18.861 52.0442 18.7542V15.5531C52.0401 15.446 51.9936 15.3449 51.9148 15.2719C51.8359 15.1989 51.7313 15.16 51.6237 15.1636ZM61.5802 44.9618V33.942C61.5847 33.8353 61.6315 33.7347 61.7103 33.6621C61.789 33.5895 61.8934 33.5508 62.0007 33.5545H80.3271C80.3809 33.5576 80.4348 33.55 80.4856 33.5321C80.5365 33.5143 80.5832 33.4865 80.6231 33.4504C80.663 33.4143 80.6952 33.3706 80.718 33.3219C80.7407 33.2733 80.7534 33.2206 80.7554 33.1669V30.0492C80.7534 29.9962 80.7409 29.9442 80.7187 29.8961C80.6964 29.8479 80.6649 29.8046 80.6258 29.7686C80.5868 29.7326 80.541 29.7046 80.4911 29.6863C80.4411 29.6679 80.388 29.6595 80.3348 29.6616H62.0007C61.8934 29.6653 61.789 29.6266 61.7103 29.554C61.6315 29.4815 61.5847 29.3808 61.5802 29.2741V19.5293C61.5822 19.4764 61.5947 19.4243 61.6169 19.3762C61.6391 19.3281 61.6707 19.2848 61.7097 19.2488C61.7488 19.2128 61.7946 19.1848 61.8445 19.1664C61.8945 19.1481 61.9475 19.1397 62.0007 19.1418H81.7697C81.877 19.1454 81.9814 19.1068 82.0602 19.0342C82.1389 18.9616 82.1857 18.861 82.1903 18.7542V15.5531C82.1857 15.4464 82.1389 15.3457 82.0602 15.2732C81.9814 15.2006 81.877 15.1619 81.7697 15.1656H57.4333C57.326 15.1619 57.2216 15.2006 57.1428 15.2732C57.064 15.3457 57.0173 15.4464 57.0127 15.5531V48.8276C57.0173 48.9343 57.064 49.0349 57.1428 49.1075C57.2216 49.1801 57.326 49.2188 57.4333 49.2151V49.25H82.1182C82.2257 49.2537 82.3303 49.2151 82.4094 49.1425C82.4885 49.07 82.5357 48.9694 82.5407 48.8624V45.7408C82.5362 45.6337 82.4891 45.5328 82.4099 45.4601C82.3307 45.3875 82.2258 45.349 82.1182 45.3532H62.0007C61.9472 45.3553 61.8938 45.3468 61.8437 45.3282C61.7935 45.3096 61.7475 45.2813 61.7084 45.2449C61.6693 45.2085 61.6378 45.1647 61.6158 45.1161C61.5938 45.0675 61.5817 45.0151 61.5802 44.9618ZM120.256 31.2409C120.231 35.2771 119.596 38.8464 117.69 42.1502C115.784 45.454 113.063 47.9633 109.178 49.2267C106.521 50.0851 103.782 50.2944 100.966 50.0154C98.1842 49.7402 95.6512 48.9516 93.3734 47.4518C90.7878 45.7524 89.1096 43.4213 87.994 40.726C86.417 36.9106 86.1075 32.9422 86.6623 28.9253C87.2464 24.6836 88.9208 20.8741 92.3317 17.859C94.0873 16.3328 96.198 15.2671 98.4723 14.7586C101.509 14.0445 104.665 13.9949 107.722 14.6133C113.417 15.7081 117.108 18.9751 119.02 24.0597C119.941 26.4973 120.204 29.0202 120.256 31.2409ZM115.348 31.6168C115.45 29.6741 115.164 27.7307 114.507 25.8986C113.656 23.5733 112.307 21.5697 110.113 20.1494C107.066 18.1768 103.676 17.89 100.184 18.7271C97.1582 19.444 94.9367 21.1977 93.4103 23.7186C92.3123 25.5188 91.8061 27.4643 91.5374 29.493C91.0604 33.1088 91.3057 36.6393 92.9431 39.9974C93.973 42.1114 95.439 43.8903 97.8104 44.8862C100.427 45.9888 103.157 46.2078 105.972 45.8009C108.892 45.3784 111.151 44.0143 112.644 41.6464C114.557 38.6581 115.501 35.1568 115.348 31.6168Z" fill="#A0BED9"/>
</svg>
