<svg width="181" height="86" viewBox="0 0 181 86" fill="none" xmlns="http://www.w3.org/2000/svg">
<rect width="180.782" height="85.4311" fill="#00BBE6"/>
<path d="M24.6749 64.783H20.2122C20.1015 64.784 19.9917 64.7637 19.8891 64.7231C19.7866 64.6825 19.6934 64.6225 19.615 64.5466C19.5366 64.4707 19.4745 64.3804 19.4324 64.2809C19.3902 64.1815 19.3689 64.0749 19.3696 63.9674V20.7568C19.3696 20.5419 19.4575 20.3357 19.6141 20.1837C19.7706 20.0317 19.983 19.9463 20.2044 19.9463H24.6671C24.8885 19.9463 25.1008 20.0317 25.2573 20.1837C25.4139 20.3357 25.5018 20.5419 25.5018 20.7568V63.9674C25.5032 64.1819 25.417 64.3882 25.262 64.5411C25.107 64.694 24.8959 64.781 24.6749 64.783V64.783ZM69.6063 19.9463H32.7786C32.6335 19.9408 32.4921 19.9913 32.3853 20.0869C32.2785 20.1824 32.2151 20.3152 32.209 20.4561V24.6617C32.2158 24.8023 32.2794 24.9347 32.3861 25.0301C32.4927 25.1255 32.6337 25.1763 32.7786 25.1714H47.3716C47.5163 25.1666 47.657 25.2175 47.7633 25.3129C47.8695 25.4084 47.9325 25.5408 47.9386 25.6812V64.2733C47.9448 64.4137 48.0078 64.546 48.114 64.6415C48.2203 64.737 48.361 64.7879 48.5057 64.783H53.8583C54.0029 64.7879 54.1437 64.737 54.2499 64.6415C54.3561 64.546 54.4191 64.4137 54.4253 64.2733V25.6888C54.4314 25.5484 54.4945 25.4161 54.6007 25.3206C54.7069 25.2251 54.8477 25.1742 54.9923 25.1791H69.6063C69.751 25.1839 69.8917 25.133 69.9979 25.0376C70.1041 24.9421 70.1672 24.8097 70.1733 24.6693V20.4586C70.1679 20.3178 70.1051 20.1847 69.9988 20.0887C69.8925 19.9927 69.7514 19.9415 69.6063 19.9463V19.9463ZM83.0311 59.1424V44.6472C83.0373 44.5067 83.1003 44.3744 83.2065 44.2789C83.3127 44.1834 83.4535 44.1326 83.5981 44.1374H108.308C108.381 44.1415 108.454 44.1315 108.522 44.108C108.591 44.0845 108.654 44.0479 108.707 44.0004C108.761 43.9529 108.805 43.8955 108.835 43.8315C108.866 43.7675 108.883 43.6982 108.886 43.6276V39.5265C108.883 39.4569 108.866 39.3884 108.836 39.3251C108.806 39.2618 108.764 39.2048 108.711 39.1575C108.658 39.1102 108.597 39.0734 108.529 39.0492C108.462 39.0251 108.391 39.014 108.319 39.0168H83.5981C83.4535 39.0216 83.3127 38.9707 83.2065 38.8752C83.1003 38.7798 83.0373 38.6474 83.0311 38.507V25.6888C83.0338 25.6192 83.0506 25.5508 83.0806 25.4874C83.1106 25.4241 83.1531 25.3672 83.2058 25.3198C83.2584 25.2725 83.3202 25.2357 83.3875 25.2115C83.4548 25.1874 83.5264 25.1763 83.5981 25.1791H110.253C110.398 25.1839 110.539 25.133 110.645 25.0376C110.751 24.9421 110.814 24.8097 110.821 24.6693V20.4586C110.814 20.3182 110.751 20.1858 110.645 20.0904C110.539 19.9949 110.398 19.944 110.253 19.9488H77.4396C77.295 19.944 77.1542 19.9949 77.048 20.0904C76.9418 20.1858 76.8788 20.3182 76.8726 20.4586V64.2274C76.8788 64.3678 76.9418 64.5002 77.048 64.5956C77.1542 64.6911 77.295 64.742 77.4396 64.7372V64.7372V64.783H110.723C110.868 64.7879 111.009 64.7371 111.116 64.6417C111.223 64.5463 111.286 64.4139 111.293 64.2733V60.1671C111.287 60.0262 111.223 59.8934 111.117 59.7979C111.01 59.7023 110.868 59.6518 110.723 59.6573H83.5981C83.526 59.66 83.454 59.6488 83.3863 59.6244C83.3187 59.5999 83.2567 59.5626 83.204 59.5148C83.1512 59.4669 83.1088 59.4093 83.0791 59.3454C83.0495 59.2815 83.0331 59.2125 83.0311 59.1424V59.1424ZM162.147 41.0941C162.113 46.4033 161.257 51.0983 158.687 55.4441C156.117 59.7898 152.447 63.0906 147.21 64.7524C143.627 65.8816 139.933 66.1569 136.137 65.7898C132.386 65.4279 128.971 64.3905 125.899 62.4177C122.413 60.1824 120.15 57.1161 118.646 53.5707C116.52 48.552 116.102 43.332 116.85 38.0482C117.638 32.4688 119.896 27.4577 124.495 23.4917C126.862 21.4842 129.708 20.0824 132.774 19.4136C136.868 18.4742 141.124 18.409 145.246 19.2224C152.925 20.6625 157.902 24.9599 160.48 31.648C161.721 34.8545 162.076 38.1731 162.147 41.0941ZM155.529 41.5885C155.666 39.0332 155.28 36.4769 154.395 34.0669C153.248 31.0083 151.428 28.3728 148.47 26.5045C144.362 23.9097 139.791 23.5325 135.082 24.6336C131.002 25.5767 128.007 27.8834 125.949 31.1994C124.468 33.5673 123.786 36.1264 123.424 38.795C122.781 43.5512 123.111 48.1951 125.319 52.6123C126.708 55.3931 128.684 57.7329 131.882 59.043C135.41 60.4933 139.09 60.7813 142.886 60.2461C146.824 59.6904 149.869 57.896 151.882 54.7814C154.462 50.8507 155.735 46.2451 155.529 41.5885V41.5885Z" fill="white"/>
</svg>
