<svg width="26" height="26" viewBox="0 0 26 26" fill="none" xmlns="http://www.w3.org/2000/svg">
<circle cx="12.88" cy="12.88" r="12.88" fill="white"/>
<path d="M11.0341 17.2322C10.6543 17.6332 10.6714 18.2661 11.0723 18.6459C11.4732 19.0258 12.1062 19.0087 12.486 18.6077L11.0341 17.2322ZM16.8 12.6L17.526 13.2877C17.8914 12.902 17.8914 12.2979 17.526 11.9122L16.8 12.6ZM12.486 6.59224C12.1062 6.1913 11.4732 6.1742 11.0723 6.55403C10.6714 6.93386 10.6543 7.56679 11.0341 7.96773L12.486 6.59224ZM12.486 18.6077L17.526 13.2877L16.0741 11.9122L11.0341 17.2322L12.486 18.6077ZM17.526 11.9122L12.486 6.59224L11.0341 7.96773L16.0741 13.2877L17.526 11.9122Z" fill="#7966FE"/>
</svg>
