<svg width="26" height="26" viewBox="0 0 26 26" fill="none" xmlns="http://www.w3.org/2000/svg">
<circle cx="12.88" cy="12.88" r="12.88" transform="rotate(180 12.88 12.88)" fill="white"/>
<path d="M14.7259 8.52777C15.1057 8.12684 15.0886 7.4939 14.6877 7.11407C14.2868 6.73424 13.6538 6.75135 13.274 7.15228L14.7259 8.52777ZM8.95996 13.16L8.23401 12.4723C7.86861 12.858 7.86861 13.4621 8.23401 13.8478L8.95996 13.16ZM13.274 19.1678C13.6538 19.5687 14.2868 19.5858 14.6877 19.206C15.0886 18.8261 15.1057 18.1932 14.7259 17.7923L13.274 19.1678ZM13.274 7.15228L8.23401 12.4723L9.68591 13.8478L14.7259 8.52777L13.274 7.15228ZM8.23401 13.8478L13.274 19.1678L14.7259 17.7923L9.68591 12.4723L8.23401 13.8478Z" fill="#7966FE"/>
</svg>
