<svg width="246" height="90" viewBox="0 0 246 90" fill="none" xmlns="http://www.w3.org/2000/svg">
<g filter="url(#filter0_d_21_230)">
<path fill-rule="evenodd" clip-rule="evenodd" d="M24 0C17.3726 0 12 5.37258 12 12V49C12 54.1028 15.1851 58.4618 19.6756 60.1972L4 81.5L39.7436 61H230C236.627 61 242 55.6274 242 49V12C242 5.37258 236.627 0 230 0H24Z" fill="#7966FE"/>
</g>
<path d="M43.1562 33.7656H37.75L37.7188 31.1094H42.1562C42.8854 31.1094 43.4844 31.0365 43.9531 30.8906C44.4323 30.7448 44.7865 30.526 45.0156 30.2344C45.2448 29.9323 45.3594 29.5677 45.3594 29.1406C45.3594 28.7865 45.2917 28.4792 45.1562 28.2188C45.0208 27.9479 44.8125 27.7292 44.5312 27.5625C44.2604 27.3854 43.9167 27.2604 43.5 27.1875C43.0938 27.1042 42.6198 27.0625 42.0781 27.0625H39V41H35.2344V24.0938H42.0781C43.1615 24.0938 44.1354 24.1875 45 24.375C45.875 24.5625 46.6198 24.849 47.2344 25.2344C47.849 25.6198 48.3177 26.1094 48.6406 26.7031C48.974 27.2865 49.1406 27.974 49.1406 28.7656C49.1406 29.2865 49.026 29.776 48.7969 30.2344C48.5781 30.6927 48.25 31.099 47.8125 31.4531C47.375 31.8073 46.8385 32.099 46.2031 32.3281C45.5677 32.5469 44.8385 32.6823 44.0156 32.7344L43.1562 33.7656ZM43.1562 41H36.6562L38.1562 38.0312H43.1562C43.8229 38.0312 44.375 37.9479 44.8125 37.7812C45.25 37.6146 45.5729 37.375 45.7812 37.0625C46 36.7396 46.1094 36.3594 46.1094 35.9219C46.1094 35.474 46.0052 35.0885 45.7969 34.7656C45.5885 34.4427 45.2656 34.1979 44.8281 34.0312C44.401 33.8542 43.8438 33.7656 43.1562 33.7656H38.8594L38.8906 31.1094H44L45.0781 32.1406C46.151 32.2135 47.0417 32.4427 47.75 32.8281C48.4583 33.2135 48.9896 33.6979 49.3438 34.2812C49.6979 34.8646 49.875 35.5 49.875 36.1875C49.875 36.9792 49.724 37.6771 49.4219 38.2812C49.1302 38.8854 48.6927 39.3906 48.1094 39.7969C47.5365 40.1927 46.8333 40.4948 46 40.7031C45.1667 40.901 44.2188 41 43.1562 41ZM60.0312 38.3125C60.6458 38.3125 61.1979 38.1927 61.6875 37.9531C62.1875 37.7031 62.5885 37.3594 62.8906 36.9219C63.2031 36.4844 63.375 35.9792 63.4062 35.4062H66.9531C66.9323 36.5 66.6094 37.4948 65.9844 38.3906C65.3594 39.2865 64.5312 40 63.5 40.5312C62.4688 41.0521 61.3281 41.3125 60.0781 41.3125C58.7865 41.3125 57.6615 41.0938 56.7031 40.6562C55.7448 40.2083 54.9479 39.5938 54.3125 38.8125C53.6771 38.0312 53.1979 37.1302 52.875 36.1094C52.5625 35.0885 52.4062 33.9948 52.4062 32.8281V32.2812C52.4062 31.1146 52.5625 30.0208 52.875 29C53.1979 27.9688 53.6771 27.0625 54.3125 26.2812C54.9479 25.5 55.7448 24.8906 56.7031 24.4531C57.6615 24.0052 58.7812 23.7812 60.0625 23.7812C61.4167 23.7812 62.6042 24.0521 63.625 24.5938C64.6458 25.125 65.4479 25.8698 66.0312 26.8281C66.625 27.776 66.9323 28.8802 66.9531 30.1406H63.4062C63.375 29.5156 63.2188 28.9531 62.9375 28.4531C62.6667 27.9427 62.2812 27.5365 61.7812 27.2344C61.2917 26.9323 60.7031 26.7812 60.0156 26.7812C59.2552 26.7812 58.625 26.9375 58.125 27.25C57.625 27.5521 57.2344 27.9688 56.9531 28.5C56.6719 29.0208 56.4688 29.6094 56.3438 30.2656C56.2292 30.9115 56.1719 31.5833 56.1719 32.2812V32.8281C56.1719 33.526 56.2292 34.2031 56.3438 34.8594C56.4583 35.5156 56.6562 36.1042 56.9375 36.625C57.2292 37.1354 57.625 37.5469 58.125 37.8594C58.625 38.1615 59.2604 38.3125 60.0312 38.3125ZM77.2969 41.3125C76.0469 41.3125 74.9167 41.1094 73.9062 40.7031C72.9062 40.2865 72.0521 39.7083 71.3438 38.9688C70.6458 38.2292 70.1094 37.3594 69.7344 36.3594C69.3594 35.3594 69.1719 34.2812 69.1719 33.125V32.5C69.1719 31.1771 69.3646 29.9792 69.75 28.9062C70.1354 27.8333 70.6719 26.9167 71.3594 26.1562C72.0469 25.3854 72.8594 24.7969 73.7969 24.3906C74.7344 23.9844 75.75 23.7812 76.8438 23.7812C78.0521 23.7812 79.1094 23.9844 80.0156 24.3906C80.9219 24.7969 81.6719 25.3698 82.2656 26.1094C82.8698 26.8385 83.3177 27.7083 83.6094 28.7188C83.9115 29.7292 84.0625 30.8438 84.0625 32.0625V33.6719H71V30.9688H80.3438V30.6719C80.3229 29.9948 80.1875 29.3594 79.9375 28.7656C79.6979 28.1719 79.3281 27.6927 78.8281 27.3281C78.3281 26.9635 77.6615 26.7812 76.8281 26.7812C76.2031 26.7812 75.6458 26.9167 75.1562 27.1875C74.6771 27.4479 74.276 27.8281 73.9531 28.3281C73.6302 28.8281 73.3802 29.4323 73.2031 30.1406C73.0365 30.8385 72.9531 31.625 72.9531 32.5V33.125C72.9531 33.8646 73.0521 34.5521 73.25 35.1875C73.4583 35.8125 73.7604 36.3594 74.1562 36.8281C74.5521 37.2969 75.0312 37.6667 75.5938 37.9375C76.1562 38.1979 76.7969 38.3281 77.5156 38.3281C78.4219 38.3281 79.2292 38.1458 79.9375 37.7812C80.6458 37.4167 81.2604 36.901 81.7812 36.2344L83.7656 38.1562C83.401 38.6875 82.9271 39.1979 82.3438 39.6875C81.7604 40.1667 81.0469 40.5573 80.2031 40.8594C79.3698 41.1615 78.401 41.3125 77.2969 41.3125ZM106.312 24.0938V27.0938H97.9688V24.0938H106.312ZM98.8594 24.0938V41H95.0938V24.0938H98.8594ZM109.266 24.0938V41H105.484V24.0938H109.266ZM117.031 27.3438V47.5H113.266V24.0938H116.734L117.031 27.3438ZM128.047 32.3906V32.7188C128.047 33.9479 127.901 35.0885 127.609 36.1406C127.328 37.1823 126.906 38.0938 126.344 38.875C125.792 39.6458 125.109 40.2448 124.297 40.6719C123.484 41.099 122.547 41.3125 121.484 41.3125C120.432 41.3125 119.51 41.1198 118.719 40.7344C117.938 40.3385 117.276 39.7812 116.734 39.0625C116.193 38.3438 115.755 37.5 115.422 36.5312C115.099 35.5521 114.87 34.4792 114.734 33.3125V32.0469C114.87 30.8073 115.099 29.6823 115.422 28.6719C115.755 27.6615 116.193 26.7917 116.734 26.0625C117.276 25.3333 117.938 24.7708 118.719 24.375C119.5 23.9792 120.411 23.7812 121.453 23.7812C122.516 23.7812 123.458 23.9896 124.281 24.4062C125.104 24.8125 125.797 25.3958 126.359 26.1562C126.922 26.9062 127.344 27.8125 127.625 28.875C127.906 29.9271 128.047 31.099 128.047 32.3906ZM124.281 32.7188V32.3906C124.281 31.6094 124.208 30.8854 124.062 30.2188C123.917 29.5417 123.688 28.9479 123.375 28.4375C123.062 27.9271 122.661 27.5312 122.172 27.25C121.693 26.9583 121.115 26.8125 120.438 26.8125C119.771 26.8125 119.198 26.9271 118.719 27.1562C118.24 27.375 117.839 27.6823 117.516 28.0781C117.193 28.474 116.943 28.9375 116.766 29.4688C116.589 29.9896 116.464 30.5573 116.391 31.1719V34.2031C116.516 34.9531 116.729 35.6406 117.031 36.2656C117.333 36.8906 117.76 37.3906 118.312 37.7656C118.875 38.1302 119.594 38.3125 120.469 38.3125C121.146 38.3125 121.724 38.1667 122.203 37.875C122.682 37.5833 123.073 37.1823 123.375 36.6719C123.688 36.151 123.917 35.5521 124.062 34.875C124.208 34.1979 124.281 33.4792 124.281 32.7188ZM130.531 32.7344V32.375C130.531 31.1562 130.708 30.026 131.062 28.9844C131.417 27.9323 131.927 27.0208 132.594 26.25C133.271 25.4688 134.094 24.8646 135.062 24.4375C136.042 24 137.146 23.7812 138.375 23.7812C139.615 23.7812 140.719 24 141.688 24.4375C142.667 24.8646 143.495 25.4688 144.172 26.25C144.849 27.0208 145.365 27.9323 145.719 28.9844C146.073 30.026 146.25 31.1562 146.25 32.375V32.7344C146.25 33.9531 146.073 35.0833 145.719 36.125C145.365 37.1667 144.849 38.0781 144.172 38.8594C143.495 39.6302 142.672 40.2344 141.703 40.6719C140.734 41.099 139.635 41.3125 138.406 41.3125C137.167 41.3125 136.057 41.099 135.078 40.6719C134.109 40.2344 133.286 39.6302 132.609 38.8594C131.932 38.0781 131.417 37.1667 131.062 36.125C130.708 35.0833 130.531 33.9531 130.531 32.7344ZM134.297 32.375V32.7344C134.297 33.4948 134.375 34.2135 134.531 34.8906C134.688 35.5677 134.932 36.1615 135.266 36.6719C135.599 37.1823 136.026 37.5833 136.547 37.875C137.068 38.1667 137.688 38.3125 138.406 38.3125C139.104 38.3125 139.708 38.1667 140.219 37.875C140.74 37.5833 141.167 37.1823 141.5 36.6719C141.833 36.1615 142.078 35.5677 142.234 34.8906C142.401 34.2135 142.484 33.4948 142.484 32.7344V32.375C142.484 31.625 142.401 30.9167 142.234 30.25C142.078 29.5729 141.828 28.974 141.484 28.4531C141.151 27.9323 140.724 27.526 140.203 27.2344C139.693 26.9323 139.083 26.7812 138.375 26.7812C137.667 26.7812 137.052 26.9323 136.531 27.2344C136.021 27.526 135.599 27.9323 135.266 28.4531C134.932 28.974 134.688 29.5729 134.531 30.25C134.375 30.9167 134.297 31.625 134.297 32.375ZM156.859 41.3125C155.609 41.3125 154.479 41.1094 153.469 40.7031C152.469 40.2865 151.615 39.7083 150.906 38.9688C150.208 38.2292 149.672 37.3594 149.297 36.3594C148.922 35.3594 148.734 34.2812 148.734 33.125V32.5C148.734 31.1771 148.927 29.9792 149.312 28.9062C149.698 27.8333 150.234 26.9167 150.922 26.1562C151.609 25.3854 152.422 24.7969 153.359 24.3906C154.297 23.9844 155.312 23.7812 156.406 23.7812C157.615 23.7812 158.672 23.9844 159.578 24.3906C160.484 24.7969 161.234 25.3698 161.828 26.1094C162.432 26.8385 162.88 27.7083 163.172 28.7188C163.474 29.7292 163.625 30.8438 163.625 32.0625V33.6719H150.562V30.9688H159.906V30.6719C159.885 29.9948 159.75 29.3594 159.5 28.7656C159.26 28.1719 158.891 27.6927 158.391 27.3281C157.891 26.9635 157.224 26.7812 156.391 26.7812C155.766 26.7812 155.208 26.9167 154.719 27.1875C154.24 27.4479 153.839 27.8281 153.516 28.3281C153.193 28.8281 152.943 29.4323 152.766 30.1406C152.599 30.8385 152.516 31.625 152.516 32.5V33.125C152.516 33.8646 152.615 34.5521 152.812 35.1875C153.021 35.8125 153.323 36.3594 153.719 36.8281C154.115 37.2969 154.594 37.6667 155.156 37.9375C155.719 38.1979 156.359 38.3281 157.078 38.3281C157.984 38.3281 158.792 38.1458 159.5 37.7812C160.208 37.4167 160.823 36.901 161.344 36.2344L163.328 38.1562C162.964 38.6875 162.49 39.1979 161.906 39.6875C161.323 40.1667 160.609 40.5573 159.766 40.8594C158.932 41.1615 157.964 41.3125 156.859 41.3125ZM170.625 24.0938V41H166.859V24.0938H170.625ZM181.656 24.0938L174.047 34.2656H169.75L169.25 30.8594H172.391L176.953 24.0938H181.656ZM177.25 41L172.156 33.625L175.125 31.4844L182.203 41H177.25ZM192.094 24.0938V41H188.312V24.0938H192.094ZM197.641 24.0938V27.0625H182.859V24.0938H197.641ZM202.953 29.4688H207.938C209.396 29.4688 210.635 29.7135 211.656 30.2031C212.677 30.6927 213.453 31.375 213.984 32.25C214.526 33.1146 214.797 34.1042 214.797 35.2188C214.797 36.0417 214.646 36.8073 214.344 37.5156C214.042 38.2135 213.594 38.8229 213 39.3438C212.417 39.8646 211.698 40.2708 210.844 40.5625C210 40.8542 209.031 41 207.938 41H200.453V24.0938H204.234V38.0156H207.938C208.688 38.0156 209.286 37.8854 209.734 37.625C210.182 37.3646 210.505 37.026 210.703 36.6094C210.911 36.1927 211.016 35.75 211.016 35.2812C211.016 34.8021 210.911 34.349 210.703 33.9219C210.505 33.4948 210.182 33.1458 209.734 32.875C209.286 32.6042 208.688 32.4688 207.938 32.4688H202.953V29.4688ZM221.453 24.0938V41H217.688V24.0938H221.453Z" fill="white"/>
<defs>
<filter id="filter0_d_21_230" x="0" y="0" width="246" height="89.5" filterUnits="userSpaceOnUse" color-interpolation-filters="sRGB">
<feFlood flood-opacity="0" result="BackgroundImageFix"/>
<feColorMatrix in="SourceAlpha" type="matrix" values="0 0 0 0 0 0 0 0 0 0 0 0 0 0 0 0 0 0 127 0" result="hardAlpha"/>
<feOffset dy="4"/>
<feGaussianBlur stdDeviation="2"/>
<feComposite in2="hardAlpha" operator="out"/>
<feColorMatrix type="matrix" values="0 0 0 0 0 0 0 0 0 0 0 0 0 0 0 0 0 0 0.25 0"/>
<feBlend mode="normal" in2="BackgroundImageFix" result="effect1_dropShadow_21_230"/>
<feBlend mode="normal" in="SourceGraphic" in2="effect1_dropShadow_21_230" result="shape"/>
</filter>
</defs>
</svg>
